<?xml version="1.0" standalone="no"?>
<!DOCTYPE svg PUBLIC "-//W3C//DTD SVG 20010904//EN"
 "http://www.w3.org/TR/2001/REC-SVG-20010904/DTD/svg10.dtd">
<svg version="1.0" xmlns="http://www.w3.org/2000/svg"
 width="501.000000pt" height="358.000000pt" viewBox="0 0 501.000000 358.000000"
 preserveAspectRatio="xMidYMid meet">
<metadata>
Created by potrace 1.13, written by Peter Selinger 2001-2015
</metadata>
<g transform="translate(0.000000,358.000000) scale(0.100000,-0.100000)"
fill="#FFFFFF" stroke="none">
<path d="M2695 3544 c-417 -49 -734 -190 -1047 -468 l-68 -60 -771 -177 c-517
-119 -777 -183 -790 -195 -37 -34 -25 -66 59 -151 56 -58 91 -85 127 -99 36
-13 67 -37 110 -83 62 -67 137 -121 166 -121 9 0 56 -40 105 -89 66 -65 100
-92 131 -101 30 -9 65 -37 130 -101 67 -66 98 -89 125 -94 24 -5 46 -19 70
-48 32 -39 35 -49 42 -132 49 -606 421 -1156 968 -1431 248 -124 468 -180 748
-191 483 -17 939 157 1288 492 91 87 205 216 229 259 5 9 71 29 168 51 88 19
168 38 177 41 46 14 63 70 34 109 -11 16 -25 19 -82 17 -55 -2 -76 2 -103 18
-39 24 -39 23 13 156 151 389 154 843 7 1241 -17 45 -39 100 -51 122 -25 50
-27 139 -4 187 38 79 182 168 365 225 99 31 129 52 129 91 0 26 -36 58 -66 58
-14 0 -172 -34 -351 -75 l-326 -75 -121 117 c-67 65 -164 148 -216 185 -302
214 -673 330 -1040 326 -69 0 -138 -3 -155 -4z m523 -154 c205 -43 397 -125
577 -244 123 -83 302 -243 287 -258 -7 -7 -33 13 -74 52 -228 225 -519 380
-833 446 -60 12 -96 23 -80 23 17 0 72 -8 123 -19z m-239 -100 c143 -13 239
-32 367 -75 184 -61 388 -178 523 -301 l64 -58 -32 -13 c-31 -13 -33 -12 -89
37 -124 112 -309 216 -485 275 -157 52 -237 66 -417 72 -176 6 -322 -9 -441
-46 -49 -16 -58 -16 -75 -4 -12 10 -34 13 -61 10 -24 -2 -43 -3 -43 -1 0 7
190 63 267 79 70 14 194 29 283 34 14 0 76 -4 139 -9z m-730 -208 c-25 -16
-61 -48 -81 -72 -70 -81 -68 -54 -68 -837 0 -516 3 -703 11 -703 7 0 178 39
381 87 l369 87 -3 355 c-3 338 -4 358 -24 396 -24 47 -84 85 -133 85 -21 0
-31 4 -25 9 9 8 617 151 644 151 7 0 22 -7 32 -17 17 -15 18 -42 18 -438 l0
-422 255 60 255 61 0 431 c0 403 1 433 18 448 14 13 565 147 870 213 15 3 -10
-10 -55 -29 -117 -48 -187 -94 -248 -159 -42 -46 -56 -68 -65 -110 -8 -38 -10
-278 -8 -848 3 -795 3 -795 25 -836 22 -41 74 -75 138 -90 17 -4 23 -9 15 -11
-258 -64 -618 -139 -639 -134 -49 14 -51 26 -51 463 l0 407 -27 -5 c-16 -3
-129 -29 -253 -57 l-225 -52 -5 -437 c-4 -320 -8 -440 -17 -449 -10 -10 -659
-170 -687 -169 -6 1 6 10 27 21 54 28 115 93 141 148 20 44 21 62 24 403 2
303 1 358 -11 358 -8 0 -337 -74 -732 -165 -395 -91 -721 -165 -724 -165 -3 1
11 10 32 21 54 28 115 93 141 148 19 41 21 67 24 245 4 217 1 246 -26 246 -10
0 -78 -14 -151 -31 -106 -24 -139 -28 -163 -20 -38 14 -99 62 -137 110 l-30
37 255 59 c208 48 254 61 252 74 -2 9 -14 17 -26 19 -13 2 -135 -22 -273 -53
-180 -42 -259 -55 -284 -51 -25 5 -57 27 -106 73 -38 36 -66 69 -62 73 4 4
176 45 380 91 220 50 373 89 373 95 0 39 -24 36 -403 -50 -205 -47 -392 -86
-414 -86 -28 0 -52 8 -79 28 -42 31 -118 111 -111 118 2 2 228 56 502 119 274
63 500 116 502 118 9 10 -11 37 -29 37 -10 0 -245 -52 -521 -115 -275 -63
-511 -115 -522 -115 -31 0 -105 51 -148 100 -20 24 -37 46 -37 50 0 3 283 71
630 151 375 86 630 149 630 155 0 40 -21 36 -660 -111 -348 -80 -646 -145
-662 -145 -16 0 -41 6 -56 14 -25 13 -152 136 -142 136 3 1 498 115 1100 254
602 140 1102 254 1109 255 8 0 -5 -12 -30 -27z m-832 -1548 c7 -43 24 -119 39
-169 38 -127 39 -137 15 -159 -20 -18 -20 -17 -36 20 -22 52 -60 186 -73 254
-23 124 -23 120 1 130 12 5 26 8 32 6 5 -1 15 -38 22 -82z m218 -557 c213
-332 577 -569 980 -639 102 -17 146 -19 290 -15 185 6 263 20 422 72 172 57
336 148 466 259 55 46 71 55 92 50 14 -3 27 -10 30 -14 8 -12 -99 -104 -200
-172 -463 -311 -1046 -349 -1541 -100 -237 119 -426 285 -581 510 -29 41 -53
81 -53 88 0 7 10 15 23 17 12 2 24 5 27 6 3 0 23 -27 45 -62z m-186 -40 c75
-131 215 -295 346 -405 223 -188 472 -310 750 -368 61 -12 97 -23 82 -23 -50
-1 -222 38 -328 75 -255 89 -459 221 -654 426 -120 125 -274 348 -240 348 7 0
27 -24 44 -53z"/>
</g>
</svg>
